<svg width="24" height="24" viewBox="0 0 24 24" fill="none" xmlns="http://www.w3.org/2000/svg">
<path d="M15.1464 4.35355L15.2929 4.5H15.5H18.5V5.5H5.5V4.5H8.5H8.70711L8.85355 4.35355L9.70711 3.5H14.2929L15.1464 4.35355ZM6.94109 20.0589C6.65993 19.7778 6.50137 19.3968 6.5 18.9992V7.5H17.5V18.9991C17.4987 19.3967 17.3401 19.7777 17.0589 20.0589C16.7777 20.3401 16.3967 20.4987 15.9991 20.5C15.9989 20.5 15.9987 20.5 15.9985 20.5H8.00149C8.00129 20.5 8.00109 20.5 8.00089 20.5C7.60325 20.4987 7.22227 20.3401 6.94109 20.0589Z" stroke="#989898"/>
<path d="M19 4H15.5L14.5 3H9.5L8.5 4H5V6H19V4Z" fill="#989898"/>
</svg>
